<?xml version="1.0" encoding="UTF-8"?>
<svg width="150px" height="150px" viewBox="0 0 58 58" version="1.1" xmlns="http://www.w3.org/2000/svg"
    xmlns:xlink="http://www.w3.org/1999/xlink">
    <!-- Generator: sketchtool 63.1 (101010) - https://sketch.com -->
    <g id="Page-1" stroke="none" stroke-width="1" fill="none" fill-rule="evenodd">
        <g id="01---Newsroom-Landing" transform="translate(-40.000000, -19.000000)" fill="#FF4747">
            <g id="ea-logo" transform="translate(40.000000, 19.000000)">
                <path
                    d="M29,58 C12.98475,58 0,45.0170625 0,29 C0,12.98475 12.98475,0 29,0 C45.0170625,0 58,12.98475 58,29 C58,45.0170625 45.0170625,58 29,58 L29,58 Z M27.198375,35.057375 L15.6980625,35.057375 L18.23375,31.0064375 L26.0220625,31.0064375 L28.55775,26.9935625 L12.2434375,26.9935625 L9.70775,31.0426875 L13.456,31.0426875 L8.348375,39.1065 L29.4766875,39.1065 L37.377375,26.5186875 L40.2066875,31.0064375 L37.855875,31.0064375 L35.318375,35.057375 L42.742375,35.057375 L45.27625,39.1065 L50.0920625,39.1065 L37.377375,18.8935 L27.198375,35.057375 Z M33.8339375,18.8935 L17.041125,18.8935 L14.5,22.848375 L31.2928125,22.848375 L33.8339375,18.8935 Z"
                    id="Fill-1"></path>
            </g>
        </g>
    </g>
</svg>