<svg width="56" height="56" viewBox="0 0 56 56" fill="none" xmlns="http://www.w3.org/2000/svg">
<path d="M10.2036 43.9944C9.52916 43.9923 8.86494 43.8293 8.26616 43.5189C7.58297 43.1649 7.01023 42.6299 6.61056 41.9724C6.21088 41.315 5.99968 40.5602 6 39.7908V16.1989C5.99965 15.4756 6.18622 14.7646 6.54161 14.1347C6.897 13.5048 7.40916 12.9775 8.02838 12.6038C8.64766 12.2301 9.35302 12.0226 10.0761 12.0017C10.7991 11.9809 11.5152 12.1473 12.155 12.4848L26.4305 19.9898C27.0324 20.3059 27.7021 20.4711 28.3819 20.4711C29.0618 20.4711 29.7315 20.3059 30.3333 19.9898L44.6088 12.4848C45.2486 12.1473 45.9648 11.9809 46.6878 12.0017C47.4109 12.0226 48.1162 12.2301 48.7355 12.6038C49.3547 12.9775 49.8669 13.5048 50.2223 14.1347C50.5776 14.7646 50.7642 15.4756 50.7639 16.1989V39.7978C50.7642 40.5672 50.553 41.322 50.1533 41.9794C49.7536 42.6369 49.1809 43.1719 48.4977 43.5259C47.8144 43.8815 47.0463 44.0423 46.2777 43.9905C45.5091 43.9387 44.7696 43.6762 44.1402 43.232L30.851 33.8526C30.3966 33.5316 30.0883 33.0433 29.9939 32.4951C29.8994 31.9468 30.0266 31.3835 30.3473 30.929C30.5058 30.7035 30.707 30.5113 30.9397 30.3636C31.1724 30.2159 31.4319 30.1155 31.7034 30.068C31.9749 30.0206 32.2531 30.0272 32.522 30.0873C32.791 30.1474 33.0455 30.26 33.271 30.4184L46.5603 39.7978V16.2059L32.2918 23.7108C31.0863 24.3454 29.7443 24.6771 28.3819 24.6771C27.0195 24.6771 25.6776 24.3454 24.4721 23.7108L10.2036 16.2059V39.7978L23.4929 30.4184C23.7184 30.26 23.9729 30.1474 24.2418 30.0873C24.5108 30.0272 24.789 30.0206 25.0605 30.068C25.332 30.1155 25.5915 30.2159 25.8242 30.3636C26.0568 30.5113 26.2581 30.7035 26.4165 30.929C26.7373 31.3835 26.8644 31.9468 26.77 32.4951C26.6756 33.0433 26.3673 33.5316 25.9129 33.8526L12.6236 43.232C11.9149 43.7297 11.0696 43.9961 10.2036 43.9944V43.9944Z" fill="url(#paint0_linear_6046_231536)"/>
<defs>
<linearGradient id="paint0_linear_6046_231536" x1="28.6197" y1="8.54699" x2="28.1651" y2="45.9179" gradientUnits="userSpaceOnUse">
<stop stop-color="#4297F7"/>
<stop offset="1" stop-color="#2975CA"/>
</linearGradient>
</defs>
</svg>
