<svg width="43" height="22" viewBox="0 0 43 22" fill="none" xmlns="http://www.w3.org/2000/svg">
    <path
        d="M41.6284 18.6378L41.2366 17.7994C41.1093 17.5259 40.8872 17.3105 40.6125 17.1955L0 0L0.0290251 0.0602842L0.59391 1.26373L0.989106 2.10548C1.11637 2.37787 1.33853 2.59222 1.61204 2.70832L30.2459 14.8321C30.132 15.0431 30.0114 15.2474 29.8819 15.445C29.5202 15.9999 29.1005 16.5 28.6338 16.9421C26.3319 19.1235 22.908 19.867 19.8167 18.5586C17.9892 17.7849 16.577 16.4207 15.704 14.7718C15.3122 14.0306 15.0286 13.2335 14.8656 12.4051C14.7774 11.9597 14.725 11.5053 14.7093 11.0465L19.4606 13.0582C19.7364 13.1754 20.0445 13.1821 20.3258 13.0794L22.4536 12.3002L5.33961 5.05382L6.31979 7.15372C6.44705 7.42723 6.66921 7.64269 6.94384 7.75879L11.6147 9.73589C12.2656 10.0507 12.6887 10.6703 12.7858 11.3569C12.7858 11.3669 12.7858 11.3781 12.788 11.3892C12.788 11.3892 12.788 11.3904 12.788 11.3915C12.797 11.4663 12.8037 11.5399 12.8048 11.6147C12.8048 11.617 12.8048 11.6181 12.8048 11.6203C12.8048 11.6293 12.807 11.6382 12.807 11.6471C12.8483 12.1305 12.922 12.6094 13.0281 13.0794C13.2134 13.9 13.4947 14.6959 13.8665 15.4461C14.9293 17.5985 16.7233 19.388 19.0755 20.3839C23.1725 22.1187 27.743 20.9309 30.5618 17.7593C30.9816 17.287 31.3623 16.7713 31.6972 16.2142C31.8177 16.0121 31.9338 15.8056 32.0421 15.5935L42.2179 19.9016L41.6284 18.639V18.6378Z"
        fill="white" />
</svg>