<svg width="200" height="200" viewBox="0 0 150 150" fill="none" xmlns="http://www.w3.org/2000/svg">
    <circle cx="75" cy="75" r="75" fill="#000" />
    <path
        d="m115.257 89.276-.784-1.677a2.405 2.405 0 0 0-1.248-1.208L32 52l.058.12 1.13 2.407.79 1.684c.255.545.7.973 1.246 1.206l57.268 24.247a16.732 16.732 0 0 1-3.224 4.22c-4.604 4.363-11.452 5.85-17.635 3.233-3.655-1.547-6.479-4.276-8.225-7.573a17.261 17.261 0 0 1-1.99-7.451l9.503 4.023a2.353 2.353 0 0 0 1.73.043l4.256-1.559L42.68 62.108l1.96 4.2c.255.546.7.977 1.249 1.21l9.341 3.954a4.25 4.25 0 0 1 2.343 3.242c0 .02 0 .042.004.064v.005c.018.15.031.297.034.446v.012c0 .018.004.035.004.053a21.213 21.213 0 0 0 2.119 7.598c2.126 4.305 5.714 7.884 10.418 9.876 8.194 3.47 17.335 1.094 22.973-5.25a20.704 20.704 0 0 0 2.96-4.331l20.352 8.616-1.18-2.525v-.002Z"
        fill="#fff" />
</svg>