<?xml version="1.0" encoding="utf-8"?>
<!-- Generator: Adobe Illustrator 25.4.1, SVG Export Plug-In . SVG Version: 6.00 Build 0)  -->
<svg version="1.1" id="Rocket" xmlns="http://www.w3.org/2000/svg" xmlns:xlink="http://www.w3.org/1999/xlink" x="0px" y="0px"
	 viewBox="0 0 1300.69 282.97" style="enable-background:new 0 0 1300.69 282.97;" xml:space="preserve">
<style type="text/css">
	.st0{fill:#E52525;}
	.st1{font-family:'RobotoSlab-Bold';}
	.st2{font-size:227.8258px;}
</style>
<path class="st0" d="M61,169c6.19-10.14,15-16.42,25.63-21c0.51-0.22,1.1,0.01,1.32,0.52c0.09,0.2,0.11,0.42,0.05,0.63
	c0,0,0,0.08,0,0.12c-1.71,7.34-3.22,14.74-5.22,22c-2.2,8,0.65,14,7.67,18.54c8.29,5.35,17,10.07,25.63,14.86
	c5.81,3.21,11,2.46,16-2.07c6-5.48,11.94-11.08,17.9-16.63l0.62-0.57c0.38-0.4,1.01-0.43,1.41-0.05c0.19,0.17,0.3,0.41,0.32,0.66
	c0.81,5.59,0.81,11.26,0,16.85c-0.75,5.55-2.56,10.9-5.33,15.76c-0.32,0.45-0.22,1.07,0.23,1.39c0.24,0.17,0.54,0.23,0.83,0.16
	c1.58-0.26,2.94-0.47,4.28-0.79c23.35-5.44,42.44-17.73,57.27-36.45c4.53-5.74,8.51-11.89,11.89-18.37
	c5.73-11,5.21-22.37-0.14-33.34c-2.46-5.06-5.87-9.66-9.12-14.81c-0.17-0.31-0.17-0.69,0-1c12.08-22.47,19.76-46.77,19.85-73.7
	c-0.05-0.55,0.36-1.04,0.91-1.09c0.34-0.03,0.66,0.11,0.87,0.38c14.03,14.1,24.69,31.19,31.18,50
	c11.57,33.58,10.66,66.94-3.71,99.45c-30.48,69-102.61,92.69-158.62,77.54c-0.54-0.11-0.89-0.64-0.78-1.18
	c0.04-0.18,0.13-0.35,0.26-0.49c0.82-1,1.62-1.95,2.39-2.93c9-11.47,10.89-24.2,6.51-38c-0.43-1.1-1.22-2.02-2.24-2.62
	c-10.72-6.31-21.49-12.55-32.3-18.72c-1.23-0.64-2.64-0.84-4-0.58c-15.43,3.53-25.65,12.74-30.45,27.87l-0.21,0.62
	c-0.15,0.53-0.7,0.84-1.23,0.7c-0.18-0.05-0.33-0.14-0.46-0.28c-38.28-36.22-56.13-104-22.3-163.3
	C53.8,6.21,123.55-9.32,171.64,4.86c0.54,0.11,0.89,0.63,0.78,1.18c-0.06,0.31-0.27,0.58-0.56,0.71l0,0
	c-15.96,9.13-29.94,21.35-41.13,35.94c-4.44,5.69-8.46,11.72-12.5,17.71c-0.59,1.19-1.98,1.74-3.23,1.29
	c-10.65-2.17-21.06-1.53-30.86,3.49c-6.86,3.5-11.88,8.82-15.76,15.49c-10.79,18.46-16,38.28-15.06,59.66
	c0.39,9.51,2.26,18.91,5.54,27.85c0.08,0.21,0.17,0.43,0.27,0.65c0.14,0.53,0.69,0.85,1.22,0.71C60.64,169.46,60.87,169.26,61,169z"
	/>
<path class="st0" d="M69.73,228.25l21.41,12.35c3.66,2.11,4.91,6.78,2.8,10.43c-0.52,0.91-1.23,1.7-2.07,2.33l-0.09,0.06
	c-6.56,4.75-14,7.85-21.27,11.23c-2.5,1.16-5.22,1.89-7.83,2.83c-1.09,0.39-1.76,0.1-2-1.09c-0.5-2.67-1.23-5.32-1.47-8
	c-0.7-7.93-1.75-15.86-1-23.85c0-0.16,0-0.32,0-0.48c0.41-4.2,4.15-7.27,8.35-6.85C67.68,227.32,68.76,227.67,69.73,228.25z"/>
<path class="st0" d="M172.39,16.59c-0.33-0.18-0.46-0.6-0.27-0.94c0.06-0.12,0.16-0.21,0.27-0.27c7.47-3.72,15.41-6.39,23.61-7.94
	c4.9-0.88,9.89-1.25,14.85-1.72c0.81-0.01,1.58,0.36,2.07,1c6.48,11.83,10.26,24.95,11.08,38.42l0,0c0.01,0.38-0.29,0.68-0.67,0.69
	c-0.12,0-0.23-0.03-0.33-0.08L172.39,16.59z"/>
<text transform="matrix(1.0312 0 0 1 329.6079 221.2255)"><tspan x="0" y="0" class="st1 st2">Blast</tspan><tspan x="547.32" y="0" class="st0 st1 st2">Ctrl</tspan></text>
</svg>
