<?xml version="1.0" standalone="no"?>
<!DOCTYPE svg PUBLIC "-//W3C//DTD SVG 20010904//EN"
 "http://www.w3.org/TR/2001/REC-SVG-20010904/DTD/svg10.dtd">
<svg version="1.0" xmlns="http://www.w3.org/2000/svg"
 width="840.000000pt" height="840.000000pt" viewBox="0 0 840.000000 840.000000"
 preserveAspectRatio="xMidYMid meet">
<metadata>
Created by potrace 1.14, written by Peter Selinger 2001-2017
</metadata>
<g transform="translate(0.000000,840.000000) scale(0.100000,-0.100000)"
fill="#000000" stroke="none">
<path d="M3969 8386 c-4 -3 -175 -18 -226 -19 -13 -1 -23 -4 -23 -9 0 -4 -6
-5 -13 -2 -8 3 -43 0 -78 -6 -75 -13 -147 -23 -171 -24 -10 0 -18 -4 -18 -9 0
-4 -4 -6 -8 -3 -4 2 -39 -2 -77 -10 -39 -9 -79 -17 -89 -19 -10 -3 -55 -14
-100 -26 -45 -11 -89 -23 -98 -25 -10 -2 -26 -6 -35 -8 -35 -8 -269 -87 -298
-100 -16 -8 -41 -17 -55 -21 -108 -32 -539 -240 -628 -303 -16 -12 -33 -22
-36 -22 -4 0 -19 -8 -34 -19 -15 -10 -70 -46 -122 -81 -80 -53 -233 -163 -250
-180 -3 -3 -27 -23 -55 -45 -115 -92 -181 -152 -315 -285 -98 -99 -190 -199
-256 -280 -16 -19 -31 -37 -34 -40 -8 -7 -181 -240 -200 -269 -8 -13 -28 -42
-44 -64 -16 -22 -59 -93 -97 -156 -37 -64 -73 -121 -78 -128 -6 -7 -11 -19
-11 -27 0 -8 -4 -18 -10 -21 -16 -10 -200 -395 -200 -418 0 -7 -4 -17 -8 -23
-23 -26 -157 -429 -177 -532 -1 -9 -8 -35 -14 -57 -5 -22 -13 -56 -16 -75 -7
-38 -9 -43 -19 -81 -4 -14 -9 -41 -11 -60 -2 -19 -4 -34 -5 -34 -1 0 -3 -12
-5 -28 -2 -15 -9 -62 -15 -104 -7 -42 -14 -95 -16 -117 -15 -167 -18 -240 -18
-456 0 -226 3 -288 19 -455 6 -58 43 -300 52 -340 2 -11 6 -33 9 -50 3 -16 10
-48 16 -70 5 -22 11 -47 13 -55 2 -8 13 -51 24 -95 12 -44 23 -87 26 -95 10
-40 47 -157 55 -175 5 -11 18 -51 30 -89 13 -37 29 -80 36 -95 8 -14 14 -29
14 -32 0 -4 8 -24 17 -45 9 -22 17 -41 18 -44 15 -54 231 -481 248 -488 4 -2
7 -8 7 -14 0 -5 13 -29 30 -53 16 -24 30 -48 30 -53 0 -6 3 -12 8 -14 4 -2 34
-43 67 -93 62 -92 176 -242 255 -335 82 -96 259 -274 275 -276 19 -3 38 26 55
81 17 54 33 89 45 97 5 4 7 8 2 8 -17 0 99 206 158 280 32 39 167 174 195 193
118 82 232 146 310 172 3 1 12 4 20 8 41 15 148 47 172 50 15 1 30 6 33 9 12
11 110 -19 161 -49 53 -32 123 -72 189 -108 22 -13 140 -81 263 -153 122 -71
222 -127 222 -123 0 3 4 1 8 -4 9 -14 160 -105 172 -105 6 0 10 -4 10 -10 0
-5 6 -10 13 -10 23 0 98 -57 123 -94 14 -20 23 -36 20 -36 -3 0 0 -15 6 -32
25 -80 42 -173 43 -225 0 -24 3 -43 7 -43 8 0 2 -243 -6 -280 -4 -14 -8 -41
-11 -61 -3 -19 -13 -60 -23 -90 -11 -30 -20 -57 -20 -62 -1 -4 -9 -21 -17 -37
-9 -17 -13 -30 -10 -30 3 0 -14 -35 -36 -77 -45 -84 -107 -175 -176 -260 -24
-29 -43 -59 -43 -67 0 -19 24 -37 57 -41 15 -2 29 -4 31 -6 1 -1 5 -2 10 -3 4
-1 16 -5 27 -8 11 -4 37 -9 59 -13 21 -3 42 -7 46 -10 5 -3 21 -7 37 -9 15 -3
69 -11 118 -20 50 -8 110 -17 135 -21 25 -3 59 -7 75 -9 110 -15 241 -20 455
-21 267 0 386 8 580 36 36 5 83 12 105 15 22 3 85 14 140 26 55 11 109 22 120
23 11 2 20 4 20 5 0 2 25 8 64 15 19 4 46 11 60 17 14 5 37 12 51 14 14 3 42
11 63 19 20 8 38 15 40 14 1 0 9 2 17 5 8 2 49 14 90 27 41 12 80 25 85 28 6
4 35 15 65 25 30 10 59 23 65 27 5 5 19 9 31 9 12 0 27 7 34 15 7 8 18 15 25
15 21 0 243 105 385 182 123 66 372 224 378 240 2 5 8 8 13 8 6 0 15 5 22 10
7 6 39 31 72 56 33 25 67 50 75 57 8 7 35 28 60 47 24 19 52 42 61 50 8 8 50
46 93 85 96 85 217 206 296 294 85 95 120 137 170 201 19 25 38 50 43 55 28
35 137 185 137 189 0 3 20 34 45 69 25 36 45 69 45 75 0 6 4 12 8 14 18 7 282
497 282 523 0 3 11 28 25 57 14 28 25 55 25 60 0 4 11 31 24 60 14 29 28 66
31 81 4 15 11 30 16 33 5 3 9 13 9 23 0 10 8 40 19 67 23 63 41 115 46 134 1
8 12 47 24 85 11 39 23 81 25 95 3 14 14 63 26 110 19 79 29 125 36 175 1 11
3 20 4 20 1 0 5 25 15 90 2 17 6 46 9 65 24 160 31 281 31 530 -1 236 -10 400
-31 530 -3 19 -7 51 -10 70 -2 19 -8 58 -14 85 -5 28 -11 64 -14 80 -2 17 -11
60 -20 96 -8 37 -17 78 -20 90 -8 40 -37 153 -43 169 -3 8 -7 20 -8 25 -2 6
-8 30 -16 55 -7 25 -13 50 -15 55 -1 6 -23 69 -48 140 -26 72 -48 135 -50 140
-4 12 -9 26 -71 173 -26 61 -51 115 -56 118 -5 3 -9 14 -9 24 0 10 -3 20 -7
22 -5 2 -25 37 -46 78 -52 104 -86 166 -130 233 -20 31 -37 61 -37 66 0 5 -3
11 -7 13 -5 2 -30 37 -57 78 -27 41 -53 77 -58 78 -4 2 -8 7 -8 12 0 13 -112
160 -122 160 -4 0 -8 6 -8 14 0 8 -3 16 -7 18 -5 2 -40 41 -79 88 -96 114
-217 240 -232 240 -23 0 -30 -38 -36 -200 -4 -91 -9 -181 -11 -200 -3 -19 -7
-60 -10 -90 -5 -62 -11 -108 -20 -160 -3 -19 -8 -48 -10 -65 -4 -30 -11 -66
-20 -115 -3 -14 -8 -36 -10 -50 -9 -49 -13 -67 -41 -180 -15 -63 -29 -117 -29
-120 -18 -74 -111 -361 -134 -415 -25 -57 -101 -253 -101 -260 0 -5 -7 -16
-15 -25 -8 -9 -16 -25 -18 -36 -4 -23 -177 -377 -189 -384 -10 -7 15 -54 86
-158 31 -46 56 -86 56 -88 0 -3 5 -10 11 -17 62 -71 204 -368 223 -468 2 -13
9 -45 15 -71 28 -123 28 -368 -1 -422 -6 -11 -10 -22 -9 -24 5 -4 -10 -75 -17
-87 -4 -5 -7 -12 -7 -15 -1 -31 -101 -233 -161 -328 -19 -29 -34 -54 -34 -57
0 -4 -34 -56 -103 -159 -89 -133 -267 -346 -402 -481 -268 -268 -602 -497
-925 -634 -41 -18 -84 -36 -95 -41 -38 -18 -160 -62 -184 -66 -13 -3 -33 -10
-45 -16 -11 -6 -30 -13 -41 -14 -11 -2 -51 -12 -90 -24 -38 -11 -81 -22 -95
-25 -14 -3 -36 -7 -50 -10 -98 -22 -111 -22 -125 -8 -20 20 -20 21 18 94 33
63 75 167 82 202 2 9 6 21 9 25 3 5 7 19 10 33 3 13 8 35 11 49 3 14 8 39 11
55 3 17 7 36 9 43 17 50 24 354 11 485 -8 84 -33 100 -82 53 -6 -6 -64 -60
-130 -121 -65 -60 -134 -126 -155 -145 -20 -19 -76 -71 -124 -115 -48 -44
-101 -93 -119 -110 -108 -101 -211 -147 -319 -141 -84 5 -127 21 -267 98 -25
14 -76 42 -115 63 -38 21 -87 49 -107 62 -21 12 -40 23 -42 23 -6 0 -161 90
-206 118 -14 9 -28 16 -31 15 -4 -1 -15 7 -24 17 -10 11 -23 20 -29 20 -10 1
-148 87 -173 109 -7 6 -15 11 -19 11 -9 0 -27 15 -97 85 -84 85 -135 204 -131
310 1 46 13 136 19 145 2 4 6 17 9 31 3 13 17 71 31 129 15 58 28 113 31 123
2 9 6 27 10 40 3 12 7 31 9 42 5 28 40 186 59 268 20 86 20 84 -6 90 -13 4
-45 -5 -82 -23 -33 -17 -66 -30 -73 -30 -6 0 -13 -3 -15 -7 -1 -5 -25 -19 -53
-33 -27 -14 -54 -29 -60 -33 -5 -4 -39 -27 -75 -50 -36 -23 -70 -46 -76 -52
-7 -5 -27 -21 -45 -35 -98 -74 -222 -213 -313 -347 -39 -58 -61 -56 -87 5 -12
26 -22 52 -23 57 -1 6 -13 42 -25 80 -12 39 -25 81 -27 95 -3 14 -9 39 -14 55
-5 17 -12 42 -15 58 -3 15 -7 38 -10 52 -11 55 -16 82 -21 120 -3 22 -7 51
-10 65 -2 14 -6 48 -9 75 -2 28 -7 77 -11 110 -3 33 -5 67 -5 75 1 8 1 29 0
45 -1 34 -1 210 1 210 0 0 2 41 4 90 4 91 11 169 22 239 4 21 8 53 10 70 2 17
6 42 9 56 2 14 8 41 11 60 4 19 15 71 26 115 10 44 21 88 23 99 2 10 12 44 21
75 10 31 18 58 19 61 8 31 41 126 45 130 3 3 6 13 8 23 11 61 231 527 253 535
5 2 9 12 9 23 0 10 5 19 10 19 6 0 10 6 10 14 0 8 3 16 8 18 4 2 23 28 43 58
49 74 82 112 159 187 56 55 198 163 214 163 3 0 28 13 56 30 27 16 50 27 50
24 0 -2 12 2 28 9 30 16 141 56 169 62 10 2 40 8 67 15 81 18 133 22 286 22
147 1 166 -1 302 -23 62 -10 82 -10 100 0 19 10 163 210 177 245 2 6 15 22 28
35 12 14 23 31 23 38 0 6 4 13 8 15 4 2 30 35 57 73 27 39 52 72 55 75 3 3 16
21 29 40 14 19 33 44 42 55 10 11 43 52 74 90 128 159 379 420 509 530 33 28
68 58 78 68 10 9 23 17 28 17 6 0 10 4 10 8 0 12 195 157 330 246 63 42 120
80 126 85 5 4 27 16 47 26 20 9 48 28 63 42 42 39 26 49 -176 99 -52 13 -262
54 -295 58 -22 2 -42 5 -45 6 -9 4 -23 5 -105 14 -44 4 -96 10 -115 12 -44 6
-576 15 -581 10z"/>
<path d="M6489 8216 c-2 -2 -40 -7 -84 -10 -44 -4 -96 -9 -115 -11 -19 -2 -60
-6 -90 -9 -58 -5 -226 -36 -335 -60 -33 -8 -148 -43 -177 -55 -16 -6 -28 -8
-28 -5 0 4 -6 2 -12 -3 -7 -6 -31 -16 -53 -23 -22 -7 -46 -18 -54 -24 -8 -6
-16 -10 -17 -9 -6 4 -34 -7 -112 -43 -40 -19 -76 -34 -81 -34 -4 0 -16 -9 -25
-19 -16 -18 -16 -20 12 -40 17 -12 32 -21 35 -21 5 0 196 -109 227 -130 8 -6
24 -14 35 -20 11 -5 38 -21 60 -35 22 -13 54 -31 70 -40 17 -8 44 -23 60 -34
29 -17 61 -36 143 -82 67 -38 296 -171 332 -193 19 -12 49 -28 65 -36 17 -8
36 -21 43 -27 7 -7 24 -16 38 -19 13 -3 24 -10 24 -15 0 -5 5 -9 10 -9 6 0 27
-11 48 -23 33 -21 79 -48 162 -94 14 -8 39 -23 55 -33 17 -11 46 -27 65 -37
19 -9 37 -20 40 -24 3 -4 18 -11 33 -14 l28 -7 -5 73 c-6 83 -12 135 -28 229
-5 36 -12 74 -13 85 -2 11 -9 43 -15 70 -7 28 -14 63 -16 78 -2 16 -6 33 -9
38 -4 5 -8 18 -11 29 -9 42 -13 57 -38 130 -36 109 -70 196 -107 275 -18 39
-33 73 -33 77 -1 4 -7 13 -13 20 -7 6 -13 18 -13 24 0 25 -43 85 -70 99 -15 8
-29 13 -31 11z"/>
<path d="M1970 1390 c-67 -19 -123 -65 -153 -125 -23 -46 -33 -136 -31 -290 2
-165 12 -303 40 -560 3 -31 18 -111 29 -155 1 -3 5 -24 9 -48 12 -64 26 -66
151 -22 61 21 124 43 140 51 17 7 32 13 35 14 3 1 37 17 75 35 39 19 72 34 75
35 3 1 49 22 102 48 54 26 101 48 105 48 5 1 19 10 32 20 13 11 30 19 37 19 8
0 14 5 14 10 0 6 5 10 11 10 5 0 47 23 92 51 122 77 171 132 183 204 3 22 6
42 7 45 1 3 -2 23 -7 45 -10 51 -47 114 -81 140 -29 22 -111 72 -135 82 -8 4
-17 9 -20 12 -3 3 -27 17 -55 31 -27 14 -55 30 -61 36 -7 6 -26 17 -43 24 -17
7 -31 16 -31 21 0 5 -3 8 -7 7 -9 -3 -99 48 -125 70 -10 8 -18 12 -18 8 0 -4
-20 7 -44 24 -25 16 -47 30 -50 30 -3 0 -34 17 -69 38 -34 20 -69 39 -77 40
-34 8 -107 9 -130 2z"/>
</g>
</svg>
